<svg xmlns="http://www.w3.org/2000/svg" xmlns:xlink="http://www.w3.org/1999/xlink" style="" version="1.1" xml:space="preserve" width="128" height="128"><rect id="backgroundrect" width="100%" height="100%" x="0" y="0" fill="none" stroke="none"/><style type="text/css">
	.st0{fill:#4F4F4F;}
	.st1{fill:#FFFFFF;}
</style><g class="currentLayer" style=""><title>Layer 1</title><path fill="#dadada" fill-opacity="1" stroke="#dadada" stroke-opacity="1" stroke-width="1" stroke-dasharray="none" stroke-linejoin="miter" stroke-linecap="butt" stroke-dashoffset="" fill-rule="nonzero" opacity="1" marker-start="" marker-mid="" marker-end="" d="M0,64 C0,28.64088397790055 28.64088397790055,0 64,0 C99.35911602209944,0 128,28.64088397790055 128,64 C128,99.35911602209944 99.35911602209944,128 64,128 C28.64088397790055,128 0,99.35911602209944 0,64 Z" id="svg_1" class=""/><path class="st1" d="M77.4,75.3c-2-0.3-3.4-1.9-3.4-3.9v-5.8c2.1-2.3,3.5-5.3,3.8-8.7l0.2-3.2c1.1-0.6,2.2-2,2.7-3.8  c0.7-2.5,0.1-4.7-1.5-4.9c-0.2,0-0.4,0-0.7,0l0.4-5.9C79.6,30.9,73.3,24,65.3,24h-2.5c-8,0-14.3,6.9-13.8,15.1l0.4,6  C49.2,45,49,45,48.8,45c-1.6,0.2-2.2,2.4-1.5,4.9c0.5,1.9,1.7,3.3,2.8,3.9l0.2,3.1c0.2,3.4,1.6,6.4,3.7,8.7v5.8c0,2-1.4,3.6-3.4,3.9  C41.8,76.8,27,83.2,27,90v14h74V90C101,83.2,86.2,76.8,77.4,75.3z" id="svg_2"/></g></svg>